<svg xmlns="http://www.w3.org/2000/svg" viewBox="0 0 1642.48 846.03"><defs><style>.cls-1{fill:#5d21d1;}.cls-11,.cls-2{fill:#fe7624;}.cls-3,.cls-4{fill:#fff;}.cls-11,.cls-4,.cls-5,.cls-9{stroke:#2e186a;}.cls-10,.cls-11,.cls-4,.cls-5,.cls-9{stroke-linecap:round;stroke-linejoin:round;}.cls-10,.cls-11,.cls-4,.cls-9{stroke-width:6px;}.cls-10,.cls-5,.cls-9{fill:none;}.cls-5{stroke-width:8px;}.cls-6{fill:#2e186a;}.cls-7{fill:#968bb4;}.cls-8{fill:#feba91;}.cls-10{stroke:#feba91;}</style></defs><g id="Layer_2" data-name="Layer 2"><g id="solid"><path id="chair" class="cls-1" d="M858.94,843.48l-527.19,0L293.33,537.06c-9.61-76.61,45-138.72,122.06-138.72l387.73,0Z"/><g id="body"><path id="hoodie" class="cls-2" d="M889.84,440.61c-7.88-47.55-34.52-138-253.4-105.61-90.29,12.64-101.4,49.61-81.54,89.29C410,452.59,346.9,675.05,384.6,780.6c10.74,30,19.36,60,51.27,60.34q46.36.42,70.17,1.36c54.59,2.18,652.25,2.94,652.25,2.94S1137,628.35,889.84,440.61Z"/><path id="t-shirt" class="cls-3" d="M622.32,393l-17.44,21.27s119.29,82.1,190.21,271.28c46.08,122.92,41.29,136.33,41.29,136.33l63.75-.83s-76-204.39-66.33-267.73-25-136.27-42.46-148.55S622.32,393,622.32,393Z"/><path id="neck" class="cls-4" d="M635.26,331.39l5.71,41-16,22.53h0s68.28,39.6,139.58,107.42c0,0,37.9-47.79,30.87-125.33L669,342.78Z"/><path id="string_II" data-name="string II" class="cls-5" d="M695.83,533.34s47.14,70.21,61,117.16"/><path id="string" class="cls-5" d="M851.9,542.57s-2.4,65.28,11.89,112.21"/><path id="stripe" class="cls-6" d="M889.88,440.86c.71,4.26,1.26,8.18,1.79,11.62,6.14,39.82-10,65.26-18.69,83.59,23.33-16.5,39.06-47.88,47-71.81C910.39,456.58,900.3,448.62,889.88,440.86Z"/><path id="stripe_II" data-name="stripe II" class="cls-6" d="M554.84,424.15c-16.32,3.33-40.74,9.83-60.07,23.2,16.23,8.84,109.45,64.85,166.07,83.58C627.24,507.72,575,464.53,554.84,424.15Z"/></g><g id="head"><path id="ear" class="cls-4" d="M601.25,263.25S564.14,273.31,579.16,305s51.4,2.09,51.4,2.09L613.18,261Z"/><path id="face" class="cls-4" d="M681.16,131.49c9.62-3.28,75.9-24.36,97.32,30s29,118.34,29.83,148.22S677,358.69,669.07,358s-18.76-7.07-18.76-7.07l-39.26-81.85S577.79,166.66,681.16,131.49Z"/><path id="beard" class="cls-7" d="M623.14,265.28c7.77,4.63,33.4,36.13,41.64,51.75,0,0,37.84-24.33,96.85-40,0,0,32.46-7.43,46.29-6.81,0,0,12,59.62-6.6,96.67s-76,42.37-106.59,30.52-37-19.52-48-37.64-45.1-87.32-45.1-87.32Z"/><path id="hair" class="cls-6" d="M609.42,282.09s-24.3-22.74-38.11-49.23c-13-24.9-7.61-55.75,13.94-73.75C603.29,144,620.46,148,620.46,148s-31.06-31.64-6.57-72.57a61.32,61.32,0,0,1,39.38-28.38c40.2-8.81,61,21.85,61,21.85s23.1-89.19,122.31-64.65c10,2.48,23.23,13.06,30.2,20.66C909,71,829.46,158,781.07,175.42c-53.13,19.12-87.3,18.07-108.18,9.13C687.9,189.12,693.62,274.36,609.42,282.09Z"/><polyline id="nose" class="cls-5" points="757.57 253.95 776.31 303.81 757.05 303.71"/><circle id="mouth" class="cls-6" cx="747.28" cy="337.55" r="9.47"/><ellipse id="eye_II" data-name="eye II" class="cls-6" cx="777.71" cy="249.86" rx="5.42" ry="8.39" transform="translate(-37.39 196.21) rotate(-14.04)"/><ellipse id="eye" class="cls-6" cx="726.86" cy="261.64" rx="5.42" ry="8.39" transform="translate(-41.77 184.22) rotate(-14.04)"/><path id="brow_II" data-name="brow II" class="cls-5" d="M693.66,229.94a24.85,24.85,0,0,1,20.58-14.69"/><path id="brow" class="cls-5" d="M762.32,202.32s13.64-7.43,20.27,3.58"/></g><path id="laptop" class="cls-1" d="M1354,562.9H965.2a11,11,0,0,0-10.7,8.47L900.44,800.19H759.51s-7.81,40.34,37.73,40.34h496.39a11,11,0,0,0,10.7-8.47l60.39-255.63A11,11,0,0,0,1354,562.9Z"/><g id="code_lines" data-name="code lines"><rect class="cls-1" x="1096.88" y="385.61" width="89.8" height="17.89" rx="5"/><rect class="cls-1" x="1096.88" y="468.71" width="97.93" height="17.89" rx="5"/><rect class="cls-8" x="1121.64" y="441.05" width="151.89" height="17.89" rx="5"/><rect class="cls-8" x="1282.03" y="441.05" width="82.04" height="17.89" rx="5"/><rect class="cls-1" x="1378.78" y="413.38" width="13.06" height="17.89" rx="5"/><rect class="cls-1" x="1401.62" y="385.61" width="13.06" height="17.89" rx="5"/><rect class="cls-1" x="1096.88" y="413.33" width="157.06" height="17.89" rx="5"/><rect class="cls-8" x="1191.7" y="385.61" width="108.62" height="17.89" rx="5"/><rect class="cls-2" x="1307.24" y="385.61" width="89.8" height="17.89" rx="5"/><rect class="cls-8" x="1191.7" y="358.8" width="13.06" height="17.89" rx="5"/><rect class="cls-1" x="1096.88" y="358.8" width="89.8" height="17.89" rx="5"/><rect class="cls-1" x="1210.52" y="358.8" width="89.8" height="17.89" rx="5"/><rect class="cls-2" x="1260.97" y="413.28" width="110.79" height="18" rx="5"/><g id="code_lines-2" data-name="code lines"><rect class="cls-8" x="1191.7" y="206.24" width="13.06" height="17.89" rx="5"/><rect class="cls-1" x="1096.88" y="206.24" width="89.8" height="17.89" rx="5"/><rect class="cls-1" x="1096.88" y="289.34" width="97.93" height="17.89" rx="5"/><rect class="cls-8" x="1121.64" y="261.67" width="151.89" height="17.89" rx="5"/><rect class="cls-8" x="1282.03" y="261.67" width="82.04" height="17.89" rx="5"/><rect class="cls-1" x="1378.78" y="234.01" width="13.06" height="17.89" rx="5"/><rect class="cls-1" x="1096.88" y="233.96" width="157.06" height="17.89" rx="5"/><rect class="cls-1" x="1210.52" y="206.24" width="89.8" height="17.89" rx="5"/><rect class="cls-2" x="1260.97" y="233.9" width="110.79" height="18" rx="5"/></g></g><g id="mug"><circle id="handle" class="cls-9" cx="1493.01" cy="761" r="26.07"/><line id="spoon" class="cls-9" x1="1421.52" y1="739.81" x2="1384.25" y2="694.31"/><path id="shape" class="cls-8" d="M1378.78,725.71h110.6a0,0,0,0,1,0,0v85.81a30,30,0,0,1-30,30h-50.6a30,30,0,0,1-30-30V725.71A0,0,0,0,1,1378.78,725.71Z"/><g id="_" data-name="&lt;/&gt;"><path class="cls-6" d="M1401.51,776.42l20-12a2,2,0,0,1,1-.25,2,2,0,0,1,2,2,2,2,0,0,1-1,1.76l-17.21,10.32,17.21,10.31a2,2,0,0,1,1,1.76,2,2,0,0,1-2,2,2,2,0,0,1-1-.25l-20-12a2,2,0,0,1,0-3.62Z"/><path class="cls-6" d="M1445.28,756.67a1.89,1.89,0,0,1,1.41-.58,2,2,0,0,1,2,2,2.11,2.11,0,0,1-.18.86l-16.1,40.25a2.09,2.09,0,0,1-.4.55,2,2,0,0,1-1.43.6,2,2,0,0,1-2-2,2,2,0,0,1,.18-.85l16.1-40.25A2.08,2.08,0,0,1,1445.28,756.67Z"/><path class="cls-6" d="M1476.87,778.23a2.11,2.11,0,0,1-1.1,1.81l-20,12a2,2,0,0,1-1,.25,2,2,0,0,1-2-2,2,2,0,0,1,1-1.76L1471,778.23l-17.21-10.32a2,2,0,0,1-1-1.76,2,2,0,0,1,.59-1.42,2,2,0,0,1,1.43-.59,2,2,0,0,1,1,.25l20,12A2.1,2.1,0,0,1,1476.87,778.23Z"/></g></g><g id="tea"><circle id="handle-2" data-name="handle" class="cls-9" cx="243.28" cy="761" r="26.07"/><path id="sring" class="cls-9" d="M273,714.21c21.39-.58,27.47,26,27.47,26"/><g id="mug-2" data-name="mug"><path id="shape-2" data-name="shape" class="cls-8" d="M241.81,725.71h110.6a0,0,0,0,1,0,0v85.81a30,30,0,0,1-30,30h-50.6a30,30,0,0,1-30-30V725.71A0,0,0,0,1,241.81,725.71Z"/><g id="_2" data-name="&lt;&gt;"><path class="cls-6" d="M264.55,776.42l20-12a2,2,0,0,1,1-.25,2,2,0,0,1,2,2,2,2,0,0,1-1,1.76l-17.21,10.32,17.21,10.31a2,2,0,0,1,1,1.76,2,2,0,0,1-2,2,2,2,0,0,1-1-.25l-20-12a2,2,0,0,1,0-3.62Z"/><path class="cls-6" d="M329.85,778.23a2.1,2.1,0,0,1-1.11,1.81l-20,12a2,2,0,0,1-1,.25,1.91,1.91,0,0,1-1.42-.59,1.93,1.93,0,0,1-.59-1.42,2,2,0,0,1,1-1.76l17.21-10.31-17.21-10.32a2,2,0,0,1-1-1.76,2,2,0,0,1,2-2,2,2,0,0,1,1,.25l20,12A2.09,2.09,0,0,1,329.85,778.23Z"/></g></g><path id="string-2" data-name="string" class="cls-9" d="M260.82,818.59S241.16,714.2,273,714.21"/><rect id="tea_tag" data-name="tea tag" class="cls-1" x="243.69" y="804.42" width="32.53" height="31.66" rx="11"/></g><g id="soda"><line id="line" class="cls-10" x1="427.34" y1="691.13" x2="413.67" y2="666.32"/><path id="shape-3" data-name="shape" class="cls-8" d="M466.92,694.59H402.83l-13.29,17.29a9.15,9.15,0,0,0-2,5.61V822.75A9.84,9.84,0,0,0,392.5,831c4.11,2.56,9.35,6.52,9.72,10.31h65.31c.36-3.79,5.6-7.75,9.71-10.31a9.84,9.84,0,0,0,4.93-8.27V717.49a9.2,9.2,0,0,0-2-5.61Z"/><line id="line-2" data-name="line" class="cls-9" x1="396.99" y1="693.78" x2="472.76" y2="693.78"/><g id="_soda_" data-name="&lt;soda/&gt;"><path class="cls-6" d="M461.52,720.39l7,11.68a1.15,1.15,0,0,1,.15.59,1.11,1.11,0,0,1-.34.82,1.14,1.14,0,0,1-.83.35,1.19,1.19,0,0,1-1-.6l-6-10-6,10a1.2,1.2,0,0,1-1,.6,1.14,1.14,0,0,1-.83-.35,1.12,1.12,0,0,1-.35-.82,1.15,1.15,0,0,1,.15-.59l7-11.68a1.21,1.21,0,0,1,1-.65A1.23,1.23,0,0,1,461.52,720.39Z"/><path class="cls-6" d="M458.11,739.08a5.14,5.14,0,0,1,1.05-1.86,3.32,3.32,0,0,1,2.48-1,3.5,3.5,0,0,1,2.54,1.08,7.41,7.41,0,0,1,2.15,5.52,8.14,8.14,0,0,1-2.95,6.31.94.94,0,0,1-.69.22,1.17,1.17,0,0,1-.83-.34,1.13,1.13,0,0,1-.34-.83,1,1,0,0,1,.31-.78l.44-.43a5.66,5.66,0,0,0,1.71-4.15,5.11,5.11,0,0,0-1.52-3.89,1.57,1.57,0,0,0-1-.35,1,1,0,0,0-.94.72l-2.4,7.22a5.15,5.15,0,0,1-1,1.86,3.32,3.32,0,0,1-2.48,1,3.5,3.5,0,0,1-2.54-1.08,7.41,7.41,0,0,1-2.15-5.52,8.13,8.13,0,0,1,3-6.31,1.17,1.17,0,0,1,1.52.13,1.09,1.09,0,0,1,.34.82,1,1,0,0,1-.31.78l-.44.43a5.67,5.67,0,0,0-1.72,4.15,5.12,5.12,0,0,0,1.53,3.89,1.55,1.55,0,0,0,1,.35,1,1,0,0,0,.94-.72Z"/><path class="cls-6" d="M458.11,768.17a8.21,8.21,0,1,1,5.82-2.41A7.94,7.94,0,0,1,458.11,768.17ZM464,760a5.86,5.86,0,1,0-1.71,4.15A5.66,5.66,0,0,0,464,760Z"/><path class="cls-6" d="M472.23,784.6a1.14,1.14,0,0,1,.83.35,1.12,1.12,0,0,1,.35.82,1.18,1.18,0,0,1-1.18,1.18H458.11a8.21,8.21,0,1,1,5.82-2.41l-.06.06Zm-14.12,0a5.87,5.87,0,1,0-4.15-1.72A5.65,5.65,0,0,0,458.11,784.6Z"/><path class="cls-6" d="M452.36,803.38a8.23,8.23,0,1,1,5.75,2.35h-7a1.18,1.18,0,0,1,0-2.35ZM464,797.52a5.84,5.84,0,1,0-1.71,4.15A5.68,5.68,0,0,0,464,797.52Z"/><path class="cls-6" d="M460.46,822.17a1.21,1.21,0,0,1-1-.65l-7-11.68a1.18,1.18,0,0,1-.15-.59,1.18,1.18,0,0,1,1.18-1.17,1.2,1.2,0,0,1,1,.6l6,10,6-10a1.19,1.19,0,0,1,1-.6,1.16,1.16,0,0,1,1.17,1.17,1.18,1.18,0,0,1-.15.59l-7,11.68A1.23,1.23,0,0,1,460.46,822.17Z"/></g></g><g id="hand"><path id="thumb" class="cls-4" d="M727.89,420.33c.6-10.76,1.51-38.5-4.07-49.31-7.29-14.11-.49-29.17,14.42-13.76s16.5,39.64,16.5,39.64"/><g id="mug-3" data-name="mug"><circle class="cls-9" cx="854.1" cy="366.37" r="26.07"/><path class="cls-8" d="M741.44,334.85H852a0,0,0,0,1,0,0v85.81a30,30,0,0,1-30,30h-50.6a30,30,0,0,1-30-30V334.85a0,0,0,0,1,0,0Z" transform="translate(-23.71 52.3) rotate(-3.7)"/></g><path id="hand-2" data-name="hand" class="cls-4" d="M684.44,495.72,760,539.65l37.82-89.42c36.49.06,36.33-19.76,28.69-20.44s-44.33,4.47-44.33,4.47,1.19-2.67,31-8.33,24.21-22.27,17.8-22.72-53.78,11.42-53.78,11.42l40.7-14.53c14.49-4.6,15-18.64,7.43-20.62-5-1.31-31.66,6.75-52.76,14.13,0,0,25.36-13,37.39-20.86s3.62-18.11-3.41-17.47-55.87,33.3-65.17,41.39S684.44,495.72,684.44,495.72Z"/><path id="sleeve" class="cls-11" d="M685,841.28c76.19-5.68,91.59-262,94.27-270.82,5.29-17.44-11.32-21.53-9.14-35.34s.49-20,.49-20c-35.77-5.82-70.51-50.8-70.51-50.8s-3.6,2.63-13.85,11.39-21.69-4.7-33.39,8.72C645.12,493.38,561,634.6,561,634.6"/><path id="welt" class="cls-6" d="M773.19,534.71c2.48-14.87,3.46-21.34,3.46-21.34-38.09-5.86-77.37-53.89-77.37-53.89s-3.88,2.86-14.9,12.39c-4.44,3.84-9,3.81-13.78,3.35-3.37,41.71,71.45,78.84,106.89,80.59C775.23,545.79,771.32,546,773.19,534.71Z"/><path id="line-3" data-name="line" class="cls-9" d="M511.48,610.91s45.1-38.92,71.28-14.4"/></g><g id="coffe"><circle id="handle-3" data-name="handle" class="cls-9" cx="641.34" cy="761" r="26.07"/><path id="shape-4" data-name="shape" class="cls-8" d="M527.1,725.71H637.7a0,0,0,0,1,0,0v85.81a30,30,0,0,1-30,30H557.1a30,30,0,0,1-30-30V725.71A0,0,0,0,1,527.1,725.71Z"/><path class="cls-6" d="M549.83,776.42l20-12a2,2,0,0,1,1-.25,2,2,0,0,1,1.42.59,1.91,1.91,0,0,1,.59,1.42,2,2,0,0,1-1,1.76l-17.21,10.32,17.21,10.31a2,2,0,0,1,1,1.76,2,2,0,0,1-2,2,2,2,0,0,1-1-.25l-20-12a2,2,0,0,1,0-3.62Z"/><path class="cls-6" d="M593.6,756.67a1.92,1.92,0,0,1,1.41-.58,2,2,0,0,1,2,2,2.27,2.27,0,0,1-.17.86l-16.1,40.25a2.13,2.13,0,0,1-.41.55,2,2,0,0,1-1.43.6,2,2,0,0,1-2-2,2.19,2.19,0,0,1,.17-.85l16.1-40.25A2.29,2.29,0,0,1,593.6,756.67Z"/><path class="cls-6" d="M625.2,778.23a2.1,2.1,0,0,1-1.11,1.81l-20,12a2,2,0,0,1-1,.25,2,2,0,0,1-2-2,2,2,0,0,1,1-1.76l17.2-10.31-17.2-10.32a2,2,0,0,1-1-1.76,1.91,1.91,0,0,1,.59-1.42,2,2,0,0,1,1.42-.59,2,2,0,0,1,1,.25l20,12A2.09,2.09,0,0,1,625.2,778.23Z"/></g><line id="line-4" data-name="line" class="cls-9" x1="3" y1="843.03" x2="1639.48" y2="843.03"/></g></g></svg>