<svg xmlns="http://www.w3.org/2000/svg" viewBox="0 0 1270.77 801.49"><defs><style>.cls-1{fill:#5d21d1;}.cls-2,.cls-5{fill:#fe7624;}.cls-3,.cls-4{fill:#fff;}.cls-4,.cls-5,.cls-6,.cls-8{stroke:#2e186a;}.cls-10,.cls-4,.cls-5,.cls-6,.cls-8{stroke-linecap:round;stroke-linejoin:round;}.cls-10,.cls-4,.cls-5,.cls-6{stroke-width:6px;}.cls-10,.cls-6,.cls-8{fill:none;}.cls-7{fill:#2e186a;}.cls-8{stroke-width:8px;}.cls-9{fill:#feba91;}.cls-10{stroke:#fff;}.cls-11{fill:#968bb4;}</style></defs><g id="Layer_2" data-name="Layer 2"><g id="solid_II" data-name="solid II"><path id="chair" class="cls-1" d="M248.36,313.1H472.2a139,139,0,0,1,139,139V798a0,0,0,0,1,0,0H109.36a0,0,0,0,1,0,0V452.1A139,139,0,0,1,248.36,313.1Z"/><g id="body"><path id="hoodie" class="cls-2" d="M729.9,379.4h0c.29-50.2-18.51-126.91-225.24-88.66C398.74,309.53,390,356.38,412.73,401.38,371.58,422,297.3,470.11,232.88,570c-95,147.21-3.25,228.54,50.75,228.54s654.5-4.75,654.5-4.75S961.51,562.1,729.9,379.4Z"/><path id="t-shirt" class="cls-3" d="M479.14,350l-21.59,22.2s102.78,78.17,136.22,266.53c21.73,122.39,14.31,136.13,14.31,136.13l63.74-3.4s-35.51-203.53-13.39-267.94,1.9-136.74-13.07-148.45S479.14,350,479.14,350Z"/><path id="neck" class="cls-4" d="M504.18,287.14l-2.38,41.21-20.39,23.42h0s60.29,37.27,118,103c0,0,47.21-49.84,55.49-127.93L544.3,340.49l-8.67-43.2Z"/><g id="hand"><path id="hand-2" data-name="hand" class="cls-4" d="M658.54,677c16.34,3.76,29.37,7.4,33,10.12,11.72,8.85,60.36,56.5,62.14,64.27s-12.48,12.09-24.25.12l-34.69-33.08s35.34,40.22,38.07,46.37-11.06,17-31.48-8.86-23.67-26.1-23.67-26.1,23.35,32.54,26.45,39.91S687.51,784.1,669.46,750l-107.93-4.74,6.32-85.67s53.78,9,90.69,17.49"/><path id="sleeve" class="cls-5" d="M378.6,798s173.06-11.74,192.46-16.72,12.21-19.17,26.26-24.58,18.55-9.75,18.55-9.75c-18.22-29.06,0-77.2,0-77.2s-4.77-1.3-19.52-4.34-10-18.22-29.93-20-191.28,17.78-191.28,17.78"/><path id="line" class="cls-6" d="M386.86,611.58s32.49,3.17,40.75,45.83"/><path id="welt" class="cls-7" d="M599.7,758.67c15.21-5.72,20.07-10.32,20.07-10.32-19.71-30.77,0-81.74,0-81.74s-5.16-1.38-21.12-4.6c-6.42-1.29-9.42-4.67-12.13-8.36-32.68,37.06-13.06,102.18-4.33,125.78C589.85,772.7,588.17,763,599.7,758.67Z"/></g><path id="shadow" class="cls-7" d="M729.9,379.4h0c0,9.35-.76,17.78-1,24.38-2,46.14-24.33,70.63-33.15,89,29.47-18.2,56.48-57.36,69.81-83.19Q748.79,394.35,729.9,379.4Z"/><path id="shadow_II" data-name="shadow II" class="cls-7" d="M513.29,502.93c-15.85-7.29-76.23-53.37-100.56-101.55A393.28,393.28,0,0,0,353,438.75c17.13,9.82,115.45,65.06,160.58,64.7Z"/><path id="string_II" data-name="string II" class="cls-8" d="M524.78,488.83s33.18,69.06,37.74,116"/><path id="string" class="cls-8" d="M678.6,491.85s-15.26,66.08-10.25,112.94"/></g><g id="code_lines" data-name="code lines"><rect class="cls-9" x="983.71" y="314.73" width="16.67" height="22.84" rx="5"/><rect class="cls-1" x="862.66" y="314.73" width="114.64" height="22.84" rx="5"/><rect class="cls-1" x="862.66" y="420.81" width="125.02" height="22.84" rx="5"/><rect class="cls-9" x="894.27" y="385.5" width="193.9" height="22.84" rx="5"/><rect class="cls-9" x="1099.02" y="385.5" width="104.73" height="22.84" rx="5"/><rect class="cls-1" x="1222.52" y="350.18" width="16.67" height="22.84" rx="5"/><rect class="cls-1" x="862.66" y="350.11" width="200.5" height="22.84" rx="5"/><rect class="cls-1" x="1007.73" y="314.73" width="114.64" height="22.84" rx="5"/><rect class="cls-2" x="1072.13" y="350.04" width="141.43" height="22.98" rx="5"/></g><g id="laptop"><path id="laptop-2" data-name="laptop" class="cls-1" d="M1059.41,797a11,11,0,0,0,10.71-8.47l60.38-255.62a11,11,0,0,0-10.7-13.53H731a11,11,0,0,0-10.71,8.47l-54,228.81H525.29S517.48,797,563,797"/><g id="logo"><path id="leaf" class="cls-3" d="M897.21,617.76s17.87-4.34,19,11.12C916.23,628.88,902,634.6,897.21,617.76Z"/><path class="cls-3" d="M929.88,657.62a23.89,23.89,0,0,0-5.74-2.68,14.9,14.9,0,0,0,4.12-10.11,10.14,10.14,0,0,0-5-9.12c1.7-5.09,4.45-12.41,6.64-15a3,3,0,1,0-4.58-3.88c-3.17,3.74-6.46,13-8.06,17.88l-.34,0c-6.21,1.13-11.22,7.49-11.18,14.18a11.15,11.15,0,0,0,1.53,5.68,38.64,38.64,0,0,0-18.93,11c-11.3,12-11,28,.61,35.61s30.22,4.06,41.52-8S941.52,665.25,929.88,657.62Z"/></g></g><g id="hot_coffie" data-name="hot coffie"><circle id="handle" class="cls-10" cx="164.16" cy="716.14" r="26.5"/><path id="mug" class="cls-9" d="M171,680.17h110.6a0,0,0,0,1,0,0V766a30,30,0,0,1-30,30H201a30,30,0,0,1-30-30V680.17A0,0,0,0,1,171,680.17Z"/><g id="_" data-name="&lt;/&gt;"><path class="cls-7" d="M193.78,730.87l20-12a2.13,2.13,0,0,1,1-.25,2,2,0,0,1,2,2,2.06,2.06,0,0,1-1,1.76l-17.21,10.31L215.79,743a2.06,2.06,0,0,1,1,1.76,2,2,0,0,1-2,2,2.13,2.13,0,0,1-1-.25l-20-12a2,2,0,0,1,0-3.62Z"/><path class="cls-7" d="M237.55,711.12a1.92,1.92,0,0,1,1.4-.58,2,2,0,0,1,2,2,2.06,2.06,0,0,1-.18.85l-16.1,40.25a2.11,2.11,0,0,1-1.83,1.16,2,2,0,0,1-2-2A2.06,2.06,0,0,1,221,752l16.1-40.25A2.23,2.23,0,0,1,237.55,711.12Z"/><path class="cls-7" d="M269.14,732.68a2.09,2.09,0,0,1-1.11,1.81l-20,12a2.13,2.13,0,0,1-1,.25,2,2,0,0,1-2-2,2.06,2.06,0,0,1,1-1.76l17.21-10.31L246,722.37a2.06,2.06,0,0,1-1-1.76,2,2,0,0,1,2-2,2.13,2.13,0,0,1,1,.25l20,12A2.09,2.09,0,0,1,269.14,732.68Z"/></g><path id="steam" class="cls-3" d="M227,649.66c2.79,30.24-51.61-40-44-80.62s36.78-39,49-61.87c7.37-13.75,6.81-22.78,5.19-27.79a1.88,1.88,0,0,1,2.68-2.25c14.26,7.76,51.72,33.19,39.29,81.27C258.7,629.88,221.3,588.18,227,649.66Z"/></g><g id="head"><path id="ear" class="cls-4" d="M489.93,209.29s-38.43.74-31.55,35.14,49.35,14.51,49.35,14.51L502.05,210Z"/><path id="face" class="cls-4" d="M599.43,100.85c10.13-.84,79.55-5.2,87.14,52.7s-.6,121.83-7,151-139.29,15.67-146.81,13.07-16.48-11.42-16.48-11.42L498,217.31S490.61,109.89,599.43,100.85Z"/><path id="beard" class="cls-11" d="M510.68,216.56c6.42,6.38,23.64,43.17,27.84,60.32,0,0,42.61-14.42,103.66-15.3,0,0,33.28.68,46.55,4.63,0,0-2.87,60.74-29.86,92.18s-84,22.65-110.81,3.74S516.88,334.2,510.68,314s-22.56-95.65-22.56-95.65Z"/><path id="hair" class="cls-7" d="M493.29,229.54s-18.06-27.95-25-57c-6.55-27.31,6.15-55.93,31.43-68.17,21.16-10.24,36.85-2.21,36.85-2.21s-22.46-38.23,11.23-72a61.39,61.39,0,0,1,45.09-18c41.14,1.21,53.85,36,53.85,36s44-80.91,134.34-33c9.11,4.83,19.37,18.3,24.28,27.37,29.83,55-68.46,120-119.63,125.2-56.18,5.65-89.08-3.66-107.17-17.4C592,158.4,576.85,242.48,493.29,229.54Z"/><path id="mouth" class="cls-8" d="M602.54,303.63s2.56,16,17.31,13.44"/><polyline id="nose" class="cls-8" points="643.84 238.2 649.92 291.12 631.26 286.35"/><ellipse id="eye_II" data-name="eye II" class="cls-7" cx="664.37" cy="239.12" rx="5.42" ry="8.39"/><ellipse id="eye" class="cls-7" cx="612.18" cy="238.2" rx="5.42" ry="8.39"/><path id="brow_II" data-name="brow II" class="cls-8" d="M587.67,199.4a24.86,24.86,0,0,1,23.53-9.26"/><path id="brow" class="cls-8" d="M661,189.27s15-3.91,18.79,8.38"/></g><line id="line-2" data-name="line" class="cls-6" x1="3" y1="798.49" x2="1267.77" y2="798.49"/></g></g></svg>