<svg xmlns="http://www.w3.org/2000/svg" viewBox="0 0 1073.23 602.09"><defs><style>.cls-1{fill:#fff;stroke:#2e186a;}.cls-1,.cls-3{stroke-linecap:round;stroke-linejoin:round;stroke-width:6px;}.cls-2{fill:#5d21d1;}.cls-3{fill:none;stroke:#fff;}.cls-4{fill:#feba91;}.cls-5{fill:#fe7624;}</style></defs><g id="Layer_2" data-name="Layer 2"><g id="soild_III" data-name="soild III"><g id="message_sent" data-name="message sent"><g id="clouds"><path class="cls-1" d="M15.05,120.1c12.74-8.37,30.76-13.46,56.18-10.2,0,0,25.11-81.42,102.46-50.26,0,0,32.14-84.35,117.53-47.18l6.06,3.06c24.83,16.68,35.29,44.12,35.29,44.12C409.92,28.48,435,109.9,435,109.9c78.35-10.05,86.39,59.25,86.39,59.25H29.84C3.33,169.15-7.11,134.64,15.05,120.1Z"/><path class="cls-1" d="M340.66,550c12.75-8.36,30.77-13.45,56.18-10.2,0,0,25.12-81.42,102.47-50.25,0,0,32.14-84.35,117.52-47.18l6.06,3.05c24.84,16.68,35.3,44.13,35.3,44.13,77.34-31.17,102.46,50.25,102.46,50.25C839,529.79,847,599.09,847,599.09H355.45C329,599.09,318.51,564.58,340.66,550Z"/><path class="cls-1" d="M563.86,294.69c12.74-8.37,30.76-13.46,56.18-10.2,0,0,25.11-81.42,102.46-50.25,0,0,32.15-84.36,117.53-47.19l6.06,3.06c24.83,16.68,35.29,44.13,35.29,44.13,77.35-31.17,102.46,50.25,102.46,50.25,78.36-10,86.39,59.26,86.39,59.26H578.65C552.14,343.75,541.7,309.24,563.86,294.69Z"/></g><g id="message"><rect class="cls-2" x="184.88" y="104.21" width="502.06" height="312.92" rx="17.78"/><path class="cls-3" d="M197.64,113.28,426.74,290.9a14.77,14.77,0,0,0,18.35,0L674.2,113.28"/><line class="cls-3" x1="190.27" y1="359.03" x2="334.14" y2="219.11"/><line class="cls-3" x1="538.96" y1="219.11" x2="682.83" y2="359.03"/></g><g id="icon"><circle class="cls-4" cx="670.93" cy="439" r="140.09"/><path id="succes_icon" data-name="succes icon" class="cls-5" d="M781.28,305.34a12.43,12.43,0,0,0-17.11,4L733.56,358.5a106,106,0,1,0,17.86,18.33l33.84-54.38A12.42,12.42,0,0,0,781.28,305.34ZM765.28,441A98.2,98.2,0,1,1,729.4,365.2L674,454.25l-32.08-42.68A12.42,12.42,0,1,0,622,426.49l43,57.18a12.4,12.4,0,0,0,9.93,4.95h.54a12.4,12.4,0,0,0,10-5.84L747,384A97.49,97.49,0,0,1,765.28,441Z"/></g></g></g></g></svg>