<svg xmlns="http://www.w3.org/2000/svg" viewBox="0 0 1307.37 587.4"><defs><style>.cls-1{fill:#fff;}.cls-1,.cls-6,.cls-8{stroke:#2e186a;stroke-linecap:round;stroke-linejoin:round;}.cls-1,.cls-6{stroke-width:6px;}.cls-2{fill:#fe7624;}.cls-3{fill:#5d21d1;}.cls-4{fill:#968bb4;}.cls-5{fill:#2e186a;}.cls-6,.cls-8{fill:none;}.cls-7{fill:#feba92;}.cls-8{stroke-width:8px;}</style></defs><g id="Layer_2" data-name="Layer 2"><g id="soild_III" data-name="soild III"><g id="man"><g id="hand_II" data-name="hand II"><path class="cls-1" d="M656.9,230.66c-10.83,9.6-196,137.12-196,137.12L345.76,208.86s-18.67-24.24-33.53-27c-20-3.71-75.86,7.58-74.37,33.89-.47,8.27,49.48,1,55.14,41l17,15.64s48.93,107.45,72.41,159.88c44.17,95.78,138.28,64.5,164.91,45.46,57.48-41.09,152.41-101.78,152.41-101.78Z"/><path class="cls-2" d="M260.58,43.58c-.71-3.09-6-5-9-5.24-8.53-5.24-28.31-11.45-63.79,7.72-34.53,18.66-59.65,17.67-74.49,2.75a3.93,3.93,0,0,0-6.62,3.69L118,99.5a23.27,23.27,0,0,0,5.61,10.42c11.19,12,39,19.68,79.06-2,20.85-11.26,39.88-12.09,53.08-10.08l55.92,256.2,16.44-3.4Z"/><path class="cls-1" d="M282.56,252.75s-8.83-3.06-7.42,10.48,14.15,23.68,30.28,13.91,13.81-15.7,5.26-19.58S287,261.48,287,261.48"/><path class="cls-1" d="M271.53,235.53s-12.59.87-10.2,16.31,19.92,22.32,38.15,9.45,15.19-19.47,5-23.07-27.29,6.9-27.29,6.9"/><path class="cls-1" d="M279.84,207.25s-31.08,13.13-28.59,29.25,21.59,22.8,40.64,9.35,15.87-20.34,5.26-24.1S268.64,229,268.64,229"/><path class="cls-1" d="M237.86,215.76c2.81,18.21,24.37,25.74,45.89,10.55s17.93-23,5.94-27.21-27.75,11.43-27.75,11.43"/><path class="cls-1" d="M294.58,188.22s-24.51-28.75-15.11-44.77,14.5,12.86,23.28,14.8,43,50.61,43,50.61"/></g><path id="arm" class="cls-1" d="M1207.92,584.4c-15.77-32.74-130.27-109.61-130.27-109.61L986.8,584.4Z"/><path id="shirt" class="cls-3" d="M999.91,395.9c-55.8-42.57-242.27-156.59-263.63-168.84C709,211.44,638.55,221,543.18,278L554.4,395.9,410.15,584.4h591.06l85.15-109.61Z"/><path id="neck" class="cls-1" d="M817.86,239l-44.43,53.12c-24,28.74-21,71.75,7.5,96.09.49.42,1,.83,1.5,1.25,23,18.68,53.41,11.09,72.92,2.84A68.33,68.33,0,0,0,884,369.5l42.51-58.36Z"/><g id="head"><path id="ear" class="cls-1" d="M984.28,231.48s30.28,12.62,14.05,37.78-43.73-3.93-43.73-3.93l19.82-37Z"/><path id="face" class="cls-1" d="M931.27,111.11c-9.42-4.65-71.78-10.53-85.68,14.57-24.15,43.6-37.65,96.93-41.69,122.12s105.69,56,112.48,56.32,16.66-3.9,16.66-3.9l42.29-64.91S1014.84,152.34,931.27,111.11Z"/><path id="beard" class="cls-4" d="M965.52,230.76c-7.09,3.06-32.27,26.88-41,39.18,0,0-29.33-24.78-77.53-44.59,0,0-26.64-9.88-38.41-10.89,0,0-16.73,49.13-5.14,82.54s59.65,44.29,86.82,37.65,33.5-12.42,44.75-26.54,47.85-68.89,47.85-68.89Z"/><path id="hair" class="cls-5" d="M975.27,246.51S998.36,230,1013,209.08c13.75-19.63,12.63-46.33-3.61-64-13.6-14.76-29.9-17.24-29.9-17.24s26.78-26.74,6.22-61.89a52.35,52.35,0,0,0-33.37-24.54c-34.23-7.86-52.22,18.13-52.22,18.13s-19-76.31-103.84-56.2c-8.56,2-19.93,10.94-25.94,17.37-36.47,39,30.7,113.89,71.85,129.16,45.18,16.76,71.55,12.27,90.21,7C919.17,159.14,904.87,230.63,975.27,246.51Z"/><polyline id="nose" class="cls-6" points="853.02 206.27 831.64 241.55 847.94 248.43"/><ellipse id="eye_II" data-name="eye II" class="cls-5" cx="836.43" cy="202.27" rx="7.16" ry="4.63" transform="translate(341.53 906.26) rotate(-68.49)"/><ellipse id="eye" class="cls-5" cx="878.16" cy="214.46" rx="7.16" ry="4.63" transform="translate(356.62 952.81) rotate(-68.49)"/><path id="brow" class="cls-6" d="M906.92,193a21.2,21.2,0,0,0-15.79-14.71"/><path id="brow-2" data-name="brow" class="cls-6" d="M854.73,166.08s-10.72-7.81-17.55.77"/><path id="mouth" class="cls-6" d="M847.39,276.4c12.58-.27,20.4-4.29,20.4-4.29.14.54,4.69,18.65-7.17,18C848.61,290.79,847.39,276.4,847.39,276.4Z"/></g><g id="hand"><path class="cls-1" d="M870.22,521.17l107.83,14.22,24.11,49h146.56S1022,477.76,982.27,466.21h0c-44.58-16.85-89.31-.8-97,8.34-8.45,10-35.82,36-50.22,38.05s-31.39-2.61-31.14,6.12c.11,4-1.71,16.79,19.77,15.14,16-1.24,32.29-2.69,46.56-12.68"/><path class="cls-1" d="M890.91,487.39S866.28,512.31,867,520.53s11.94,25.24,20.34,25.24,21-.55,21-.55"/><path class="cls-1" d="M910.74,494.25s-18.86,20-18.63,27.33,9.6,23.34,19.2,25.7,24.87-2.51,24.87-2.51"/><path class="cls-1" d="M931,502.65s-19.25,18.44-9.43,28.63c13.26,11.88,23.5,14.42,29.71,14.42,6.84,0,18.9-11.75,18.9-11.75"/><path class="cls-6" d="M941.93,519.62s-2.7,9.36,36.12,15.77"/></g></g><g id="clouds"><path class="cls-1" d="M702.19,512.57c-30.6-82.65-104.14-74.32-104.14-74.32V395.9H488.4v42.35s-73.54-8.33-104.14,74.32c0,0-67.28-13-99.82,71H802C769.47,499.55,702.19,512.57,702.19,512.57Z"/><path class="cls-1" d="M660.42,530.19c-23-62.14-78.3-55.88-78.3-55.88v-91H499.68v91s-55.3-6.26-78.3,55.88c0,0-50.58-9.8-75.05,53.37H735.46C711,520.39,660.42,530.19,660.42,530.19Z"/><path class="cls-1" d="M623.63,545.52c-16.17-43.68-55-39.28-55-39.28V387.9H510.66V506.24s-38.87-4.4-55,39.28c0,0-35.55-6.88-52.74,37.51h273.5C659.18,538.64,623.63,545.52,623.63,545.52Z"/></g><g id="rocket"><path class="cls-2" d="M487,431.69l10.93,42.54a2.2,2.2,0,0,0,4.25-.13l9.71-20.73s12.74,45.35,30.76,46.64,35.79-47.31,35.79-47.31l8.19,22.14a2.2,2.2,0,0,0,4.24-.26L602,432.69s9.72-70.91-60.36-65.47S487,431.69,487,431.69Z"/><path class="cls-2" d="M457.45,239.17s-53.58,72.59-46.69,137.52H529v-139Z"/><path class="cls-2" d="M626,239.17s53.58,72.59,46.69,137.52H554.4v-139Z"/><path class="cls-1" d="M590,376.69c45.42-81.64,40.48-146.45,27.21-190.84S572.77,92,543.18,92s-60.73,49.5-74,93.89-18.88,109.2,26.53,190.84L483,404H602.74L590,376.69Z"/><ellipse class="cls-2" cx="543.18" cy="219.62" rx="33.84" ry="40.25"/><ellipse class="cls-2" cx="543.18" cy="271.3" rx="5.64" ry="6.71"/><ellipse class="cls-2" cx="564.88" cy="271.3" rx="5.64" ry="6.71"/><ellipse class="cls-2" cx="519.74" cy="271.3" rx="5.64" ry="6.71"/><ellipse class="cls-1" cx="543.18" cy="215.7" rx="25.53" ry="30.36"/><path class="cls-2" d="M549.15,88.78V41.23c0-.15,0-.3,0-.44a7.38,7.38,0,1,0-11.91,0c0,.14,0,.29,0,.44V88.69c-12.41,2.54-24.8,13-36.15,26.88A159,159,0,0,1,546,112a230.31,230.31,0,0,1,41,5.89C575.28,102.88,562.15,91.6,549.15,88.78Z"/><path class="cls-7" d="M597.07,144.61a177.22,177.22,0,0,0-53.27-10.2c-22.72-.9-40,4.33-54.16,10a219.21,219.21,0,0,0-15.1,36c17-8.5,37.78-17.48,69.74-16.88,30.34.56,51.24,7.42,67.09,14.68A219.52,219.52,0,0,0,597.07,144.61Z"/><path class="cls-7" d="M586.54,376.38q3.13-5.83,5.94-11.54c-9.94-4.19-24.19-7.63-49.52-7.4-25.63-.23-39.94,3.34-49.85,7.59q2.77,5.64,5.86,11.39s22.5-4.54,44-4.35C564.09,371.89,586.54,376.38,586.54,376.38Z"/></g><g id="remote_control" data-name="remote control"><rect class="cls-2" x="741.39" y="535.43" width="115.94" height="25.8"/><line class="cls-8" x1="833.9" y1="535.43" x2="833.9" y2="561.22"/><path class="cls-5" d="M672.51,551.87V565H615.43a9.83,9.83,0,1,0,0,9.48h57.08v8.43h249.6v-31Z"/><line class="cls-8" x1="877.56" y1="551.87" x2="877.56" y2="582.91"/></g><line id="line" class="cls-6" x1="1304.37" y1="584.4" x2="3" y2="584.4"/></g></g></svg>