<svg xmlns="http://www.w3.org/2000/svg" viewBox="0 0 1714.87 612.72"><defs><style>.cls-1{fill:#feba91;}.cls-2,.cls-6{fill:#fff;}.cls-10,.cls-2,.cls-3,.cls-4,.cls-7{stroke:#2e186a;}.cls-10,.cls-2,.cls-4,.cls-7,.cls-8,.cls-9{stroke-linecap:round;}.cls-10,.cls-2,.cls-3,.cls-4,.cls-7,.cls-8,.cls-9{stroke-linejoin:round;}.cls-10,.cls-2,.cls-3,.cls-4,.cls-8,.cls-9{stroke-width:6px;}.cls-3,.cls-4,.cls-7,.cls-8,.cls-9{fill:none;}.cls-5{fill:#fe7624;}.cls-7{stroke-width:7.63px;}.cls-8{stroke:#5d21d1;}.cls-9{stroke:#fe7624;}.cls-10{fill:#fcfcfc;}.cls-11{fill:#2e186a;}.cls-12{fill:#5d21d1;}</style></defs><g id="Layer_2" data-name="Layer 2"><g id="solid_II" data-name="solid II"><g id="workspace"><path id="lamp" class="cls-1" d="M1584.83,397l-30.42-24V333.29a9,9,0,1,0-18,0v25.52L1333.9,199.16a9,9,0,0,0-5.77-1.93,14.38,14.38,0,0,0-4.83-.84h-210a14.41,14.41,0,0,0-14.41,14.4v3a14.41,14.41,0,0,0,14.41,14.41h210a14.38,14.38,0,0,0,11.33-5.53l201.78,159.08V585.42h-170.6v24.3H1539a9,9,0,0,0,12.9,0h15.47v-24.3h-12.92V395.93l19.28,15.2A9,9,0,1,0,1584.83,397Z"/><g id="pile_of_files" data-name="pile of files"><rect class="cls-2" x="1098" y="375.79" width="342.36" height="231.65"/><path class="cls-3" d="M1290.09,373.58V608.76"/><line class="cls-4" x1="1244" y1="401.45" x2="1398.92" y2="401.45"/><line class="cls-4" x1="1337.73" y1="484.67" x2="1437.26" y2="484.67"/><line class="cls-4" x1="1228.51" y1="552.22" x2="1422.54" y2="552.22"/><line class="cls-4" x1="1255.62" y1="463.86" x2="1155.31" y2="463.86"/><line class="cls-4" x1="1098" y1="520.42" x2="1216.89" y2="520.42"/><path class="cls-2" d="M1441.36,484.29c25.56,9.66-.77,25.82-.77,25.82s-6.59-18.32-40.28-25.75Z"/></g><g id="computer_screen" data-name="computer screen"><path id="shape" class="cls-5" d="M949.79,0H244.31a14.87,14.87,0,0,0-14.83,14.83V434a14.87,14.87,0,0,0,14.83,14.83H521.36L480.7,604.06,738,612.23,696.11,448.82H949.79A14.87,14.87,0,0,0,964.62,434V14.83A14.87,14.87,0,0,0,949.79,0Z"/><circle id="shape-2" data-name="shape" class="cls-6" cx="604.53" cy="517.46" r="30.84"/><line class="cls-7" x1="672.7" y1="449.35" x2="710.04" y2="608.35"/><rect id="screen" class="cls-6" x="264.66" y="28.17" width="636.98" height="382.58" rx="13.99"/><line class="cls-4" x1="933.79" y1="3.54" x2="933.79" y2="444.86"/><g id="lines_on_screen" data-name="lines on screen"><line class="cls-8" x1="641.58" y1="89.38" x2="641.58" y2="371.45"/><path class="cls-8" d="M880.14,129.67c-2.42.81-238.56-3.22-238.56,0"/><path class="cls-8" d="M880.14,230.79c-2.42.81-238.56-3.22-238.56,0"/><path class="cls-8" d="M880.14,316.16c-2.42.81-238.56-3.22-238.56,0"/><line class="cls-8" x1="662.74" y1="154.46" x2="761.87" y2="154.46"/><line class="cls-8" x1="662.74" y1="175.21" x2="820.5" y2="175.21"/><line class="cls-8" x1="662.74" y1="191.73" x2="764.49" y2="191.73"/><line class="cls-8" x1="662.74" y1="208.25" x2="698.8" y2="208.25"/><line class="cls-8" x1="662.74" y1="252.18" x2="820.5" y2="252.18"/><line class="cls-8" x1="662.74" y1="268.7" x2="764.49" y2="268.7"/><line class="cls-8" x1="662.74" y1="285.22" x2="698.8" y2="285.22"/><line class="cls-8" x1="662.74" y1="332.63" x2="820.5" y2="332.63"/><line class="cls-8" x1="662.74" y1="349.15" x2="764.49" y2="349.15"/><line class="cls-8" x1="309.74" y1="129.78" x2="541.24" y2="129.78"/><line class="cls-8" x1="309.74" y1="148.41" x2="541.24" y2="148.41"/><line class="cls-8" x1="309.74" y1="346.47" x2="541.24" y2="346.47"/><line class="cls-8" x1="338.15" y1="175.21" x2="497.72" y2="175.21"/><line class="cls-8" x1="338.15" y1="194.35" x2="474.45" y2="194.35"/><line class="cls-8" x1="368.07" y1="219.74" x2="544.57" y2="221.25"/><line class="cls-8" x1="368.07" y1="237.71" x2="544.57" y2="239.22"/><line class="cls-8" x1="368.07" y1="293.77" x2="544.57" y2="295.28"/><line class="cls-8" x1="368.07" y1="309.38" x2="544.57" y2="310.89"/><line class="cls-8" x1="335.43" y1="258.94" x2="438.18" y2="258.94"/><line class="cls-8" x1="335.43" y1="276.35" x2="438.18" y2="276.35"/><line class="cls-8" x1="335.43" y1="331.96" x2="394.56" y2="331.96"/><rect class="cls-8" x="283.75" y="89.38" width="596.39" height="282.08"/><line class="cls-9" x1="304.9" y1="69.83" x2="335.43" y2="69.83"/><line class="cls-9" x1="438.18" y1="69.83" x2="462.87" y2="69.83"/><line class="cls-9" x1="490.87" y1="69.83" x2="510.21" y2="69.83"/><line class="cls-8" x1="842.52" y1="69.83" x2="861.86" y2="69.83"/><line class="cls-8" x1="809.44" y1="69.83" x2="828.78" y2="69.83"/><line class="cls-9" x1="364.08" y1="69.83" x2="408.26" y2="69.83"/><rect class="cls-8" x="283.75" y="51.58" width="596.39" height="37.8"/></g></g><g id="flower"><g id="leaves"><path class="cls-10" d="M275.42,448.67c-19-5.67-48.69-21-78-61.7s-8-70,21-47.35S275.42,448.67,275.42,448.67Z"/><path class="cls-10" d="M276.3,447c-10.89-25.17-31.12-71.63-34.26-115.8-4.3-60.74,40.59-74.92,54-32.28C316.1,362.9,276.3,447,276.3,447Z"/><path class="cls-10" d="M355.68,388.66c29.35-40.69,8-70-21-47.36s-42.36,63.37-57,107.37C277.64,448.67,326.33,429.35,355.68,388.66Z"/><path class="cls-10" d="M277.64,462c-1-1.33,3.67-22-35.36-46.69s-48-16.71-53-7.69,17.67,30.37,42,42.71S277.64,462,277.64,462Z"/><path class="cls-10" d="M277.64,462c1-1.33-3.67-22,35.35-46.69s48-16.71,53-7.69S348.34,438,324,450.31,277.64,462,277.64,462Z"/></g><polygon id="pot" class="cls-1" points="241.52 609.21 196.16 557.75 236.28 464.73 320.39 464.73 359.11 559.35 315.16 609.21 241.52 609.21"/></g><rect id="keypad" class="cls-11" x="260.42" y="580.2" width="353.45" height="27.4" rx="10.53"/><rect id="keypad-2" data-name="keypad" class="cls-11" x="83.69" y="580.2" width="91.02" height="27.4" rx="10.53"/><g id="laptop"><path id="shape-3" data-name="shape" class="cls-12" d="M714.39,330.07l388.83,3.22a11,11,0,0,1,10.66,8.44l53.82,227.82H1308s7.78,40.17-37.57,40.17H776.22a11,11,0,0,1-10.66-8.44L703.73,343.54A11,11,0,0,1,714.39,330.07Z"/><path id="screen-2" data-name="screen" class="cls-6" d="M1143.23,547.72l-42.17-177.5a13.59,13.59,0,0,0-13.21-10.45l-336.61-4A13.59,13.59,0,0,0,738,372.54l42.35,181.81a13.58,13.58,0,0,0,13.23,10.45l336.44-.35A13.59,13.59,0,0,0,1143.23,547.72Z"/><g id="screen_lines" data-name="screen lines"><polyline class="cls-9" points="787.35 386.58 778.6 400.26 792.7 409.71"/><line class="cls-9" x1="806.22" y1="407.75" x2="817.8" y2="388.87"/><polyline class="cls-9" points="830.77 387.83 844.05 398.17 835.83 409.73"/><line class="cls-9" x1="849.56" y1="533.89" x2="880.38" y2="533.91"/><line class="cls-9" x1="901.76" y1="533.92" x2="964.62" y2="533.95"/><line class="cls-9" x1="985.42" y1="533.96" x2="1105.11" y2="534.03"/><line class="cls-9" x1="805.23" y1="515.51" x2="824.1" y2="515.52"/><line class="cls-9" x1="845.31" y1="515.53" x2="876.14" y2="515.55"/><line class="cls-9" x1="897.35" y1="515.56" x2="1107.37" y2="515.67"/><line class="cls-9" x1="800.99" y1="497.16" x2="843.64" y2="497.18"/><line class="cls-9" x1="863.93" y1="497.19" x2="920.66" y2="497.22"/><line class="cls-9" x1="978.19" y1="497.25" x2="1048.66" y2="497.29"/><line class="cls-9" x1="940.9" y1="497.23" x2="960.88" y2="497.24"/><line class="cls-9" x1="796.75" y1="478.8" x2="855.48" y2="478.83"/><line class="cls-9" x1="873.37" y1="478.84" x2="1022.71" y2="478.92"/><line class="cls-9" x1="1040.61" y1="478.93" x2="1098.89" y2="478.96"/><line class="cls-9" x1="827.32" y1="460.46" x2="849.91" y2="460.47"/><line class="cls-9" x1="864.52" y1="460.48" x2="1003.5" y2="460.55"/><line class="cls-9" x1="792.51" y1="460.44" x2="812.7" y2="460.45"/><line class="cls-9" x1="789.17" y1="446.02" x2="896.09" y2="446.08"/><line class="cls-9" x1="912.48" y1="446.08" x2="1093.97" y2="446.18"/><line class="cls-9" x1="785.18" y1="428.71" x2="843.9" y2="428.74"/><line class="cls-9" x1="863.71" y1="428.75" x2="907.29" y2="428.78"/><line class="cls-9" x1="925.77" y1="428.79" x2="950.62" y2="428.8"/><line class="cls-9" x1="969.1" y1="428.81" x2="1022.64" y2="428.84"/><line class="cls-9" x1="1041.12" y1="428.85" x2="1055.52" y2="428.85"/></g><g id="post_it" data-name="post it"><path class="cls-1" d="M984.23,347.2s17.5,78,33.44,90.28H1143.6A37.73,37.73,0,0,1,1118,411.34l-18-64Z"/><path class="cls-4" d="M1010.91,375h76"/><path class="cls-4" d="M1014.31,389.25h76"/><line class="cls-4" x1="1018.23" y1="403.91" x2="1068.67" y2="403.91"/></g></g><line id="line" class="cls-4" x1="3" y1="609.72" x2="1711.87" y2="609.72"/></g></g></g></svg>